<svg width="400" height="397" viewBox="0 0 400 397" fill="none" xmlns="http://www.w3.org/2000/svg">
<path d="M3.48793 52V0.363635H14.4052V42.9989H36.5423V52H3.48793ZM61.2195 52.7564C57.2359 52.7564 53.8069 51.9496 50.9326 50.3359C48.0751 48.7055 45.8732 46.4027 44.3268 43.4276C42.7804 40.4356 42.0072 36.8974 42.0072 32.8129C42.0072 28.8292 42.7804 25.333 44.3268 22.3242C45.8732 19.3155 48.0499 16.9706 50.857 15.2898C53.6808 13.6089 56.9922 12.7685 60.7909 12.7685C63.3459 12.7685 65.7243 13.1803 67.9262 14.0039C70.145 14.8107 72.078 16.0294 73.7252 17.6598C75.3893 19.2902 76.6836 21.3409 77.608 23.8118C78.5325 26.2659 78.9948 29.1402 78.9948 32.4347V35.3846H46.2934V28.7283H68.8843C68.8843 27.1819 68.5481 25.812 67.8758 24.6186C67.2035 23.4252 66.2706 22.4923 65.0771 21.82C63.9005 21.1308 62.5306 20.7862 60.9674 20.7862C59.337 20.7862 57.8914 21.1644 56.6308 21.9208C55.3869 22.6604 54.412 23.6605 53.7061 24.9212C53.0001 26.165 52.6387 27.5517 52.6219 29.0813V35.4098C52.6219 37.326 52.9749 38.9817 53.6808 40.3768C54.4036 41.7719 55.4205 42.8477 56.7316 43.604C58.0427 44.3604 59.5975 44.7386 61.396 44.7386C62.5895 44.7386 63.682 44.5705 64.6737 44.2344C65.6655 43.8982 66.5143 43.3939 67.2203 42.7216C67.9262 42.0492 68.4641 41.2256 68.8339 40.2507L78.7678 40.9062C78.2636 43.2931 77.2298 45.3774 75.6666 47.1591C74.1202 48.924 72.12 50.3023 69.6659 51.294C67.2287 52.2689 64.4132 52.7564 61.2195 52.7564ZM106.603 13.2727V21.3409H83.281V13.2727H106.603ZM88.5757 3.99432H99.3165V40.0994C99.3165 41.0911 99.4678 41.8643 99.7703 42.419C100.073 42.9569 100.493 43.3351 101.031 43.5536C101.586 43.7721 102.224 43.8814 102.947 43.8814C103.451 43.8814 103.956 43.8394 104.46 43.7553C104.964 43.6545 105.351 43.5788 105.62 43.5284L107.309 51.521C106.771 51.689 106.015 51.8823 105.04 52.1009C104.065 52.3362 102.88 52.479 101.485 52.5295C98.8963 52.6303 96.6271 52.2857 94.6773 51.4957C92.7443 50.7057 91.2399 49.4787 90.1642 47.8146C89.0884 46.1506 88.5589 44.0495 88.5757 41.5114V3.99432ZM154.867 35.5107V13.2727H165.608V52H155.296V44.9656H154.892C154.018 47.2347 152.564 49.0585 150.531 50.4368C148.513 51.8151 146.051 52.5043 143.143 52.5043C140.555 52.5043 138.277 51.916 136.31 50.7393C134.344 49.5627 132.806 47.8903 131.696 45.7219C130.604 43.5536 130.049 40.9567 130.032 37.9311V13.2727H140.773V36.0149C140.79 38.3009 141.403 40.1078 142.614 41.4357C143.824 42.7636 145.446 43.4276 147.48 43.4276C148.774 43.4276 149.984 43.1334 151.11 42.5451C152.237 41.94 153.144 41.0491 153.833 39.8725C154.539 38.6959 154.884 37.242 154.867 35.5107ZM206.422 24.3161L196.589 24.9212C196.42 24.0807 196.059 23.3243 195.504 22.652C194.95 21.9628 194.218 21.4165 193.311 21.0131C192.42 20.5929 191.353 20.3828 190.109 20.3828C188.445 20.3828 187.041 20.7358 185.898 21.4418C184.755 22.1309 184.184 23.0554 184.184 24.2152C184.184 25.1397 184.553 25.9213 185.293 26.56C186.033 27.1987 187.302 27.7114 189.1 28.098L196.109 29.5099C199.875 30.2831 202.682 31.527 204.531 33.2415C206.38 34.956 207.304 37.2083 207.304 39.9986C207.304 42.5367 206.556 44.7638 205.06 46.68C203.581 48.5962 201.547 50.0922 198.959 51.168C196.387 52.2269 193.42 52.7564 190.058 52.7564C184.932 52.7564 180.847 51.689 177.805 49.5543C174.779 47.4028 173.006 44.4781 172.485 40.7802L183.049 40.2255C183.368 41.7887 184.142 42.9821 185.369 43.8058C186.596 44.6126 188.167 45.016 190.084 45.016C191.966 45.016 193.479 44.6546 194.622 43.9318C195.782 43.1922 196.37 42.2425 196.387 41.0827C196.37 40.1078 195.958 39.3094 195.151 38.6875C194.345 38.0488 193.101 37.5613 191.42 37.2251L184.713 35.8888C180.931 35.1325 178.116 33.8214 176.267 31.9556C174.435 30.0898 173.519 27.7114 173.519 24.8203C173.519 22.3326 174.191 20.1895 175.536 18.391C176.897 16.5924 178.805 15.2057 181.259 14.2308C183.73 13.2559 186.621 12.7685 189.932 12.7685C194.824 12.7685 198.673 13.8022 201.48 15.8697C204.304 17.9371 205.951 20.7526 206.422 24.3161ZM238.14 52L227.601 13.2727H238.467L244.468 39.2926H244.821L251.074 13.2727H261.739L268.093 39.1413H268.421L274.32 13.2727H285.162L274.648 52H263.277L256.621 27.6442H256.142L249.486 52H238.14ZM307.419 52.7564C303.502 52.7564 300.115 51.9244 297.258 50.2603C294.417 48.5794 292.224 46.243 290.677 43.2511C289.131 40.2423 288.358 36.7545 288.358 32.7876C288.358 28.7872 289.131 25.291 290.677 22.299C292.224 19.2902 294.417 16.9538 297.258 15.2898C300.115 13.6089 303.502 12.7685 307.419 12.7685C311.335 12.7685 314.714 13.6089 317.555 15.2898C320.412 16.9538 322.614 19.2902 324.16 22.299C325.707 25.291 326.48 28.7872 326.48 32.7876C326.48 36.7545 325.707 40.2423 324.16 43.2511C322.614 46.243 320.412 48.5794 317.555 50.2603C314.714 51.9244 311.335 52.7564 307.419 52.7564ZM307.469 44.4361C309.251 44.4361 310.739 43.9318 311.932 42.9233C313.125 41.898 314.025 40.5028 314.63 38.7379C315.252 36.973 315.563 34.9644 315.563 32.712C315.563 30.4596 315.252 28.451 314.63 26.6861C314.025 24.9212 313.125 23.526 311.932 22.5007C310.739 21.4754 309.251 20.9627 307.469 20.9627C305.671 20.9627 304.158 21.4754 302.931 22.5007C301.721 23.526 300.805 24.9212 300.183 26.6861C299.578 28.451 299.275 30.4596 299.275 32.712C299.275 34.9644 299.578 36.973 300.183 38.7379C300.805 40.5028 301.721 41.898 302.931 42.9233C304.158 43.9318 305.671 44.4361 307.469 44.4361ZM333.464 52V13.2727H343.877V20.0298H344.28C344.986 17.6262 346.171 15.8108 347.835 14.5838C349.499 13.34 351.416 12.718 353.584 12.718C354.122 12.718 354.702 12.7517 355.324 12.8189C355.946 12.8861 356.492 12.9786 356.963 13.0962V22.6268C356.458 22.4755 355.761 22.341 354.87 22.2234C353.979 22.1057 353.164 22.0469 352.424 22.0469C350.844 22.0469 349.432 22.3915 348.188 23.0806C346.961 23.753 345.986 24.6942 345.264 25.9045C344.558 27.1147 344.205 28.5098 344.205 30.0898V52H333.464ZM372.248 40.8558L372.273 27.9719H373.836L386.241 13.2727H398.57L381.905 32.7372H379.358L372.248 40.8558ZM362.516 52V0.363635H373.256V52H362.516ZM386.72 52L375.324 35.1325L382.484 27.5433L399.302 52H386.72ZM23.8853 99.2727V107.341H0.56321V99.2727H23.8853ZM5.85795 89.9943H16.5987V126.099C16.5987 127.091 16.75 127.864 17.0526 128.419C17.3551 128.957 17.7753 129.335 18.3132 129.554C18.8679 129.772 19.5066 129.881 20.2294 129.881C20.7337 129.881 21.2379 129.839 21.7422 129.755C22.2464 129.654 22.633 129.579 22.902 129.528L24.5913 137.521C24.0534 137.689 23.297 137.882 22.3221 138.101C21.3472 138.336 20.1622 138.479 18.767 138.529C16.1785 138.63 13.9093 138.286 11.9595 137.496C10.0265 136.706 8.52214 135.479 7.44638 133.815C6.37062 132.151 5.84115 130.049 5.85795 127.511V89.9943ZM47.9638 138.756C44.0473 138.756 40.6604 137.924 37.8029 136.26C34.9622 134.579 32.7687 132.243 31.2223 129.251C29.6759 126.242 28.9027 122.754 28.9027 118.788C28.9027 114.787 29.6759 111.291 31.2223 108.299C32.7687 105.29 34.9622 102.954 37.8029 101.29C40.6604 99.6089 44.0473 98.7685 47.9638 98.7685C51.8802 98.7685 55.2588 99.6089 58.0994 101.29C60.9569 102.954 63.1589 105.29 64.7053 108.299C66.2517 111.291 67.0249 114.787 67.0249 118.788C67.0249 122.754 66.2517 126.242 64.7053 129.251C63.1589 132.243 60.9569 134.579 58.0994 136.26C55.2588 137.924 51.8802 138.756 47.9638 138.756ZM48.0142 130.436C49.7959 130.436 51.2835 129.932 52.4769 128.923C53.6703 127.898 54.5696 126.503 55.1747 124.738C55.7966 122.973 56.1076 120.964 56.1076 118.712C56.1076 116.46 55.7966 114.451 55.1747 112.686C54.5696 110.921 53.6703 109.526 52.4769 108.501C51.2835 107.475 49.7959 106.963 48.0142 106.963C46.2157 106.963 44.7029 107.475 43.4759 108.501C42.2656 109.526 41.3496 110.921 40.7276 112.686C40.1225 114.451 39.82 116.46 39.82 118.712C39.82 120.964 40.1225 122.973 40.7276 124.738C41.3496 126.503 42.2656 127.898 43.4759 128.923C44.7029 129.932 46.2157 130.436 48.0142 130.436ZM91.4563 153.33C87.9769 153.33 84.9934 152.85 82.5057 151.892C80.0348 150.951 78.0682 149.665 76.6058 148.035C75.1435 146.404 74.1938 144.572 73.7567 142.538L83.6907 141.202C83.9933 141.975 84.4723 142.698 85.1278 143.37C85.7834 144.043 86.649 144.581 87.7248 144.984C88.8174 145.404 90.1452 145.614 91.7085 145.614C94.0449 145.614 95.9695 145.043 97.4822 143.9C99.0118 142.774 99.7766 140.883 99.7766 138.227V131.142H99.3228C98.8522 132.218 98.1462 133.235 97.2049 134.193C96.2636 135.151 95.0534 135.933 93.5742 136.538C92.0951 137.143 90.3301 137.445 88.2795 137.445C85.3716 137.445 82.7242 136.773 80.3374 135.428C77.9673 134.067 76.0763 131.991 74.6644 129.201C73.2693 126.394 72.5717 122.847 72.5717 118.561C72.5717 114.174 73.2861 110.509 74.7148 107.568C76.1436 104.626 78.043 102.424 80.413 100.962C82.7998 99.4996 85.4136 98.7685 88.2543 98.7685C90.4226 98.7685 92.2379 99.1383 93.7003 99.8778C95.1626 100.601 96.3393 101.508 97.2301 102.601C98.1378 103.677 98.8353 104.736 99.3228 105.778H99.7262V99.2727H110.391V138.378C110.391 141.673 109.585 144.429 107.971 146.648C106.357 148.867 104.122 150.531 101.264 151.64C98.4235 152.766 95.1542 153.33 91.4563 153.33ZM91.6832 129.377C93.4145 129.377 94.8769 128.949 96.0703 128.091C97.2805 127.217 98.205 125.973 98.8438 124.36C99.4993 122.729 99.8271 120.779 99.8271 118.51C99.8271 116.241 99.5077 114.275 98.869 112.61C98.2302 110.93 97.3058 109.627 96.0955 108.702C94.8853 107.778 93.4145 107.316 91.6832 107.316C89.9183 107.316 88.4308 107.795 87.2205 108.753C86.0103 109.694 85.0942 111.005 84.4723 112.686C83.8504 114.367 83.5394 116.308 83.5394 118.51C83.5394 120.746 83.8504 122.679 84.4723 124.309C85.111 125.923 86.0271 127.175 87.2205 128.066C88.4308 128.94 89.9183 129.377 91.6832 129.377ZM136.588 138.756C132.604 138.756 129.175 137.95 126.301 136.336C123.443 134.705 121.241 132.403 119.695 129.428C118.149 126.436 117.375 122.897 117.375 118.813C117.375 114.829 118.149 111.333 119.695 108.324C121.241 105.315 123.418 102.971 126.225 101.29C129.049 99.6089 132.36 98.7685 136.159 98.7685C138.714 98.7685 141.092 99.1803 143.294 100.004C145.513 100.811 147.446 102.029 149.093 103.66C150.757 105.29 152.052 107.341 152.976 109.812C153.901 112.266 154.363 115.14 154.363 118.435V121.385H121.662V114.728H144.252C144.252 113.182 143.916 111.812 143.244 110.619C142.572 109.425 141.639 108.492 140.445 107.82C139.269 107.131 137.899 106.786 136.336 106.786C134.705 106.786 133.26 107.164 131.999 107.921C130.755 108.66 129.78 109.661 129.074 110.921C128.368 112.165 128.007 113.552 127.99 115.081V121.41C127.99 123.326 128.343 124.982 129.049 126.377C129.772 127.772 130.789 128.848 132.1 129.604C133.411 130.36 134.966 130.739 136.764 130.739C137.958 130.739 139.05 130.571 140.042 130.234C141.034 129.898 141.882 129.394 142.588 128.722C143.294 128.049 143.832 127.226 144.202 126.251L154.136 126.906C153.632 129.293 152.598 131.377 151.035 133.159C149.488 134.924 147.488 136.302 145.034 137.294C142.597 138.269 139.781 138.756 136.588 138.756ZM181.971 99.2727V107.341H158.649V99.2727H181.971ZM163.944 89.9943H174.685V126.099C174.685 127.091 174.836 127.864 175.138 128.419C175.441 128.957 175.861 129.335 176.399 129.554C176.954 129.772 177.593 129.881 178.315 129.881C178.82 129.881 179.324 129.839 179.828 129.755C180.332 129.654 180.719 129.579 180.988 129.528L182.677 137.521C182.139 137.689 181.383 137.882 180.408 138.101C179.433 138.336 178.248 138.479 176.853 138.529C174.264 138.63 171.995 138.286 170.045 137.496C168.112 136.706 166.608 135.479 165.532 133.815C164.457 132.151 163.927 130.049 163.944 127.511V89.9943ZM200.541 115.611V138H189.8V86.3636H200.238V106.105H200.692C201.566 103.819 202.978 102.029 204.928 100.735C206.878 99.424 209.323 98.7685 212.265 98.7685C214.954 98.7685 217.299 99.3568 219.299 100.533C221.316 101.693 222.879 103.366 223.989 105.551C225.115 107.719 225.67 110.316 225.653 113.342V138H214.912V115.258C214.929 112.871 214.324 111.014 213.097 109.686C211.887 108.358 210.189 107.694 208.004 107.694C206.541 107.694 205.247 108.005 204.121 108.627C203.012 109.249 202.137 110.156 201.499 111.35C200.877 112.526 200.557 113.947 200.541 115.611ZM251.755 138.756C247.771 138.756 244.342 137.95 241.468 136.336C238.61 134.705 236.408 132.403 234.862 129.428C233.316 126.436 232.542 122.897 232.542 118.813C232.542 114.829 233.316 111.333 234.862 108.324C236.408 105.315 238.585 102.971 241.392 101.29C244.216 99.6089 247.527 98.7685 251.326 98.7685C253.881 98.7685 256.259 99.1803 258.461 100.004C260.68 100.811 262.613 102.029 264.26 103.66C265.924 105.29 267.219 107.341 268.143 109.812C269.068 112.266 269.53 115.14 269.53 118.435V121.385H236.829V114.728H259.419C259.419 113.182 259.083 111.812 258.411 110.619C257.739 109.425 256.806 108.492 255.612 107.82C254.436 107.131 253.066 106.786 251.503 106.786C249.872 106.786 248.427 107.164 247.166 107.921C245.922 108.66 244.947 109.661 244.241 110.921C243.535 112.165 243.174 113.552 243.157 115.081V121.41C243.157 123.326 243.51 124.982 244.216 126.377C244.939 127.772 245.956 128.848 247.267 129.604C248.578 130.36 250.133 130.739 251.931 130.739C253.125 130.739 254.217 130.571 255.209 130.234C256.201 129.898 257.049 129.394 257.755 128.722C258.461 128.049 258.999 127.226 259.369 126.251L269.303 126.906C268.799 129.293 267.765 131.377 266.202 133.159C264.655 134.924 262.655 136.302 260.201 137.294C257.764 138.269 254.948 138.756 251.755 138.756ZM276.539 138V99.2727H286.952V106.03H287.356C288.062 103.626 289.247 101.811 290.911 100.584C292.575 99.34 294.491 98.718 296.659 98.718C297.197 98.718 297.777 98.7517 298.399 98.8189C299.021 98.8861 299.567 98.9786 300.038 99.0962V108.627C299.533 108.475 298.836 108.341 297.945 108.223C297.054 108.106 296.239 108.047 295.499 108.047C293.919 108.047 292.507 108.391 291.264 109.081C290.037 109.753 289.062 110.694 288.339 111.904C287.633 113.115 287.28 114.51 287.28 116.09V138H276.539ZM342.623 99.2727V107.341H319.301V99.2727H342.623ZM324.595 89.9943H335.336V126.099C335.336 127.091 335.487 127.864 335.79 128.419C336.092 128.957 336.513 129.335 337.051 129.554C337.605 129.772 338.244 129.881 338.967 129.881C339.471 129.881 339.975 129.839 340.479 129.755C340.984 129.654 341.37 129.579 341.639 129.528L343.329 137.521C342.791 137.689 342.034 137.882 341.059 138.101C340.084 138.336 338.899 138.479 337.504 138.529C334.916 138.63 332.647 138.286 330.697 137.496C328.764 136.706 327.259 135.479 326.184 133.815C325.108 132.151 324.578 130.049 324.595 127.511V89.9943ZM366.701 138.756C362.785 138.756 359.398 137.924 356.54 136.26C353.7 134.579 351.506 132.243 349.96 129.251C348.413 126.242 347.64 122.754 347.64 118.788C347.64 114.787 348.413 111.291 349.96 108.299C351.506 105.29 353.7 102.954 356.54 101.29C359.398 99.6089 362.785 98.7685 366.701 98.7685C370.618 98.7685 373.996 99.6089 376.837 101.29C379.694 102.954 381.896 105.29 383.443 108.299C384.989 111.291 385.762 114.787 385.762 118.788C385.762 122.754 384.989 126.242 383.443 129.251C381.896 132.243 379.694 134.579 376.837 136.26C373.996 137.924 370.618 138.756 366.701 138.756ZM366.752 130.436C368.533 130.436 370.021 129.932 371.214 128.923C372.408 127.898 373.307 126.503 373.912 124.738C374.534 122.973 374.845 120.964 374.845 118.712C374.845 116.46 374.534 114.451 373.912 112.686C373.307 110.921 372.408 109.526 371.214 108.501C370.021 107.475 368.533 106.963 366.752 106.963C364.953 106.963 363.44 107.475 362.213 108.501C361.003 109.526 360.087 110.921 359.465 112.686C358.86 114.451 358.557 116.46 358.557 118.712C358.557 120.964 358.86 122.973 359.465 124.738C360.087 126.503 361.003 127.898 362.213 128.923C363.44 129.932 364.953 130.436 366.752 130.436ZM3.48793 224V172.364H14.2287V191.778H14.5565C15.0271 190.736 15.7079 189.677 16.5987 188.601C17.5064 187.508 18.683 186.601 20.1286 185.878C21.5909 185.138 23.4063 184.768 25.5746 184.768C28.3984 184.768 31.0038 185.508 33.3906 186.987C35.7775 188.45 37.6853 190.66 39.114 193.618C40.5427 196.56 41.2571 200.249 41.2571 204.687C41.2571 209.007 40.5595 212.654 39.1644 215.629C37.7861 218.588 35.9035 220.832 33.5167 222.361C31.1467 223.874 28.4909 224.63 25.5494 224.63C23.4651 224.63 21.6918 224.286 20.2294 223.597C18.7839 222.907 17.5988 222.042 16.6744 221C15.7499 219.941 15.0439 218.873 14.5565 217.798H14.0774V224H3.48793ZM14.0018 204.636C14.0018 206.939 14.3211 208.948 14.9599 210.662C15.5986 212.377 16.5231 213.713 17.7333 214.671C18.9435 215.612 20.4143 216.083 22.1456 216.083C23.8937 216.083 25.3729 215.604 26.5831 214.646C27.7933 213.671 28.7094 212.326 29.3313 210.612C29.9701 208.881 30.2894 206.889 30.2894 204.636C30.2894 202.401 29.9785 200.434 29.3565 198.737C28.7346 197.039 27.8185 195.711 26.6083 194.753C25.3981 193.795 23.9105 193.316 22.1456 193.316C20.3975 193.316 18.9183 193.778 17.7081 194.702C16.5147 195.627 15.5986 196.938 14.9599 198.636C14.3211 200.333 14.0018 202.334 14.0018 204.636ZM73.2588 207.511V185.273H83.9996V224H73.6874V216.966H73.284C72.4099 219.235 70.956 221.058 68.9221 222.437C66.9051 223.815 64.4426 224.504 61.5347 224.504C58.9462 224.504 56.6686 223.916 54.702 222.739C52.7354 221.563 51.1974 219.89 50.088 217.722C48.9954 215.554 48.4407 212.957 48.4239 209.931V185.273H59.1647V208.015C59.1815 210.301 59.795 212.108 61.0052 213.436C62.2155 214.764 63.8375 215.428 65.8714 215.428C67.1656 215.428 68.3759 215.133 69.502 214.545C70.6282 213.94 71.5359 213.049 72.2251 211.873C72.931 210.696 73.2756 209.242 73.2588 207.511ZM92.5909 224V185.273H103.332V224H92.5909ZM97.9865 180.281C96.3897 180.281 95.0198 179.751 93.8768 178.692C92.7506 177.616 92.1875 176.33 92.1875 174.835C92.1875 173.355 92.7506 172.086 93.8768 171.027C95.0198 169.952 96.3897 169.414 97.9865 169.414C99.5833 169.414 100.945 169.952 102.071 171.027C103.214 172.086 103.786 173.355 103.786 174.835C103.786 176.33 103.214 177.616 102.071 178.692C100.945 179.751 99.5833 180.281 97.9865 180.281ZM122.676 172.364V224H111.936V172.364H122.676ZM145.551 224.63C142.609 224.63 139.945 223.874 137.558 222.361C135.188 220.832 133.306 218.588 131.911 215.629C130.532 212.654 129.843 209.007 129.843 204.687C129.843 200.249 130.558 196.56 131.986 193.618C133.415 190.66 135.314 188.45 137.684 186.987C140.071 185.508 142.685 184.768 145.526 184.768C147.694 184.768 149.501 185.138 150.947 185.878C152.409 186.601 153.586 187.508 154.476 188.601C155.384 189.677 156.073 190.736 156.544 191.778H156.872V172.364H167.587V224H156.998V217.798H156.544C156.04 218.873 155.325 219.941 154.401 221C153.493 222.042 152.308 222.907 150.846 223.597C149.4 224.286 147.635 224.63 145.551 224.63ZM148.955 216.083C150.686 216.083 152.148 215.612 153.342 214.671C154.552 213.713 155.477 212.377 156.115 210.662C156.771 208.948 157.099 206.939 157.099 204.636C157.099 202.334 156.779 200.333 156.14 198.636C155.502 196.938 154.577 195.627 153.367 194.702C152.157 193.778 150.686 193.316 148.955 193.316C147.19 193.316 145.702 193.795 144.492 194.753C143.282 195.711 142.366 197.039 141.744 198.737C141.122 200.434 140.811 202.401 140.811 204.636C140.811 206.889 141.122 208.881 141.744 210.612C142.383 212.326 143.299 213.671 144.492 214.646C145.702 215.604 147.19 216.083 148.955 216.083ZM203.894 224.731C201.423 224.731 199.221 224.303 197.288 223.445C195.355 222.571 193.826 221.285 192.699 219.588C191.59 217.873 191.035 215.739 191.035 213.184C191.035 211.032 191.43 209.225 192.22 207.763C193.01 206.3 194.086 205.124 195.448 204.233C196.809 203.342 198.356 202.67 200.087 202.216C201.835 201.762 203.667 201.443 205.583 201.258C207.836 201.022 209.651 200.804 211.029 200.602C212.408 200.384 213.408 200.064 214.03 199.644C214.652 199.224 214.963 198.602 214.963 197.778V197.627C214.963 196.03 214.458 194.795 213.45 193.921C212.458 193.047 211.046 192.61 209.214 192.61C207.281 192.61 205.743 193.038 204.6 193.896C203.457 194.736 202.701 195.795 202.331 197.072L192.397 196.266C192.901 193.912 193.893 191.879 195.372 190.164C196.851 188.433 198.759 187.105 201.095 186.18C203.449 185.239 206.172 184.768 209.264 184.768C211.416 184.768 213.475 185.021 215.442 185.525C217.425 186.029 219.182 186.811 220.711 187.87C222.258 188.929 223.476 190.29 224.367 191.954C225.258 193.601 225.703 195.576 225.703 197.879V224H215.517V218.63H215.215C214.593 219.84 213.761 220.907 212.719 221.832C211.676 222.739 210.424 223.454 208.962 223.975C207.499 224.479 205.81 224.731 203.894 224.731ZM206.97 217.319C208.55 217.319 209.945 217.008 211.155 216.386C212.366 215.747 213.315 214.89 214.004 213.814C214.694 212.738 215.038 211.52 215.038 210.158V206.048C214.702 206.267 214.24 206.469 213.651 206.653C213.08 206.821 212.433 206.981 211.71 207.132C210.987 207.267 210.265 207.393 209.542 207.511C208.819 207.612 208.163 207.704 207.575 207.788C206.314 207.973 205.213 208.267 204.272 208.67C203.331 209.074 202.6 209.62 202.079 210.309C201.558 210.982 201.297 211.822 201.297 212.831C201.297 214.293 201.827 215.411 202.885 216.184C203.961 216.94 205.323 217.319 206.97 217.319ZM3.48793 310V258.364H14.2287V277.778H14.5565C15.0271 276.736 15.7079 275.677 16.5987 274.601C17.5064 273.508 18.683 272.601 20.1286 271.878C21.5909 271.138 23.4063 270.768 25.5746 270.768C28.3984 270.768 31.0038 271.508 33.3906 272.987C35.7775 274.45 37.6853 276.66 39.114 279.618C40.5427 282.56 41.2571 286.249 41.2571 290.687C41.2571 295.007 40.5595 298.654 39.1644 301.629C37.7861 304.588 35.9035 306.832 33.5167 308.361C31.1467 309.874 28.4909 310.63 25.5494 310.63C23.4651 310.63 21.6918 310.286 20.2294 309.597C18.7839 308.907 17.5988 308.042 16.6744 307C15.7499 305.941 15.0439 304.873 14.5565 303.798H14.0774V310H3.48793ZM14.0018 290.636C14.0018 292.939 14.3211 294.948 14.9599 296.662C15.5986 298.377 16.5231 299.713 17.7333 300.671C18.9435 301.612 20.4143 302.083 22.1456 302.083C23.8937 302.083 25.3729 301.604 26.5831 300.646C27.7933 299.671 28.7094 298.326 29.3313 296.612C29.9701 294.881 30.2894 292.889 30.2894 290.636C30.2894 288.401 29.9785 286.434 29.3565 284.737C28.7346 283.039 27.8185 281.711 26.6083 280.753C25.3981 279.795 23.9105 279.316 22.1456 279.316C20.3975 279.316 18.9183 279.778 17.7081 280.702C16.5147 281.627 15.5986 282.938 14.9599 284.636C14.3211 286.333 14.0018 288.334 14.0018 290.636ZM66.0731 310.756C62.0894 310.756 58.6604 309.95 55.7861 308.336C52.9287 306.705 50.7267 304.403 49.1803 301.428C47.6339 298.436 46.8607 294.897 46.8607 290.813C46.8607 286.829 47.6339 283.333 49.1803 280.324C50.7267 277.315 52.9034 274.971 55.7105 273.29C58.5344 271.609 61.8457 270.768 65.6444 270.768C68.1994 270.768 70.5778 271.18 72.7797 272.004C74.9985 272.811 76.9315 274.029 78.5787 275.66C80.2428 277.29 81.5371 279.341 82.4616 281.812C83.386 284.266 83.8483 287.14 83.8483 290.435V293.385H51.1469V286.728H73.7378C73.7378 285.182 73.4017 283.812 72.7293 282.619C72.057 281.425 71.1241 280.492 69.9307 279.82C68.7541 279.131 67.3841 278.786 65.8209 278.786C64.1905 278.786 62.7449 279.164 61.4843 279.921C60.2404 280.66 59.2655 281.661 58.5596 282.921C57.8536 284.165 57.4922 285.552 57.4754 287.081V293.41C57.4754 295.326 57.8284 296.982 58.5344 298.377C59.2571 299.772 60.2741 300.848 61.5851 301.604C62.8962 302.36 64.451 302.739 66.2496 302.739C67.443 302.739 68.5355 302.571 69.5273 302.234C70.519 301.898 71.3678 301.394 72.0738 300.722C72.7797 300.049 73.3176 299.226 73.6874 298.251L83.6214 298.906C83.1171 301.293 82.0834 303.377 80.5202 305.159C78.9738 306.924 76.9735 308.302 74.5194 309.294C72.0822 310.269 69.2667 310.756 66.0731 310.756ZM111.457 271.273V279.341H88.1345V271.273H111.457ZM93.4292 261.994H104.17V298.099C104.17 299.091 104.321 299.864 104.624 300.419C104.926 300.957 105.347 301.335 105.885 301.554C106.439 301.772 107.078 301.881 107.801 301.881C108.305 301.881 108.809 301.839 109.313 301.755C109.818 301.654 110.204 301.579 110.473 301.528L112.163 309.521C111.625 309.689 110.868 309.882 109.893 310.101C108.918 310.336 107.733 310.479 106.338 310.529C103.75 310.63 101.481 310.286 99.5308 309.496C97.5978 308.706 96.0934 307.479 95.0177 305.815C93.9419 304.151 93.4124 302.049 93.4292 299.511V261.994ZM139.052 271.273V279.341H115.73V271.273H139.052ZM121.025 261.994H131.766V298.099C131.766 299.091 131.917 299.864 132.22 300.419C132.522 300.957 132.942 301.335 133.48 301.554C134.035 301.772 134.674 301.881 135.396 301.881C135.901 301.881 136.405 301.839 136.909 301.755C137.413 301.654 137.8 301.579 138.069 301.528L139.758 309.521C139.22 309.689 138.464 309.882 137.489 310.101C136.514 310.336 135.329 310.479 133.934 310.529C131.345 310.63 129.076 310.286 127.127 309.496C125.194 308.706 123.689 307.479 122.613 305.815C121.538 304.151 121.008 302.049 121.025 299.511V261.994ZM163.282 310.756C159.298 310.756 155.869 309.95 152.995 308.336C150.138 306.705 147.936 304.403 146.389 301.428C144.843 298.436 144.07 294.897 144.07 290.813C144.07 286.829 144.843 283.333 146.389 280.324C147.936 277.315 150.112 274.971 152.919 273.29C155.743 271.609 159.055 270.768 162.853 270.768C165.408 270.768 167.787 271.18 169.989 272.004C172.207 272.811 174.14 274.029 175.788 275.66C177.452 277.29 178.746 279.341 179.671 281.812C180.595 284.266 181.057 287.14 181.057 290.435V293.385H148.356V286.728H170.947C170.947 285.182 170.611 283.812 169.938 282.619C169.266 281.425 168.333 280.492 167.14 279.82C165.963 279.131 164.593 278.786 163.03 278.786C161.399 278.786 159.954 279.164 158.693 279.921C157.449 280.66 156.475 281.661 155.769 282.921C155.063 284.165 154.701 285.552 154.684 287.081V293.41C154.684 295.326 155.037 296.982 155.743 298.377C156.466 299.772 157.483 300.848 158.794 301.604C160.105 302.36 161.66 302.739 163.459 302.739C164.652 302.739 165.745 302.571 166.736 302.234C167.728 301.898 168.577 301.394 169.283 300.722C169.989 300.049 170.527 299.226 170.896 298.251L180.83 298.906C180.326 301.293 179.292 303.377 177.729 305.159C176.183 306.924 174.182 308.302 171.728 309.294C169.291 310.269 166.476 310.756 163.282 310.756ZM188.066 310V271.273H198.479V278.03H198.883C199.589 275.626 200.774 273.811 202.438 272.584C204.102 271.34 206.018 270.718 208.187 270.718C208.724 270.718 209.304 270.752 209.926 270.819C210.548 270.886 211.094 270.979 211.565 271.096V280.627C211.061 280.475 210.363 280.341 209.472 280.223C208.582 280.106 207.766 280.047 207.027 280.047C205.447 280.047 204.035 280.391 202.791 281.081C201.564 281.753 200.589 282.694 199.866 283.904C199.16 285.115 198.807 286.51 198.807 288.09V310H188.066ZM10.9258 396L0.386719 357.273H11.2536L17.2543 383.293H17.6072L23.8601 357.273H34.5252L40.8789 383.141H41.2067L47.1065 357.273H57.9482L47.4343 396H36.0632L29.407 371.644H28.9279L22.2717 396H10.9258ZM80.205 396.756C76.2886 396.756 72.9016 395.924 70.0441 394.26C67.2035 392.579 65.0099 390.243 63.4635 387.251C61.9171 384.242 61.1439 380.754 61.1439 376.788C61.1439 372.787 61.9171 369.291 63.4635 366.299C65.0099 363.29 67.2035 360.954 70.0441 359.29C72.9016 357.609 76.2886 356.768 80.205 356.768C84.1214 356.768 87.5 357.609 90.3406 359.29C93.1981 360.954 95.4001 363.29 96.9465 366.299C98.4929 369.291 99.2661 372.787 99.2661 376.788C99.2661 380.754 98.4929 384.242 96.9465 387.251C95.4001 390.243 93.1981 392.579 90.3406 394.26C87.5 395.924 84.1214 396.756 80.205 396.756ZM80.2554 388.436C82.0371 388.436 83.5247 387.932 84.7181 386.923C85.9115 385.898 86.8108 384.503 87.4159 382.738C88.0379 380.973 88.3488 378.964 88.3488 376.712C88.3488 374.46 88.0379 372.451 87.4159 370.686C86.8108 368.921 85.9115 367.526 84.7181 366.501C83.5247 365.475 82.0371 364.963 80.2554 364.963C78.4569 364.963 76.9441 365.475 75.7171 366.501C74.5068 367.526 73.5908 368.921 72.9688 370.686C72.3637 372.451 72.0612 374.46 72.0612 376.712C72.0612 378.964 72.3637 380.973 72.9688 382.738C73.5908 384.503 74.5068 385.898 75.7171 386.923C76.9441 387.932 78.4569 388.436 80.2554 388.436ZM106.25 396V357.273H116.663V364.03H117.066C117.772 361.626 118.957 359.811 120.622 358.584C122.286 357.34 124.202 356.718 126.37 356.718C126.908 356.718 127.488 356.752 128.11 356.819C128.732 356.886 129.278 356.979 129.749 357.096V366.627C129.244 366.475 128.547 366.341 127.656 366.223C126.765 366.106 125.95 366.047 125.21 366.047C123.63 366.047 122.218 366.391 120.975 367.081C119.747 367.753 118.773 368.694 118.05 369.904C117.344 371.115 116.991 372.51 116.991 374.09V396H106.25ZM146.043 344.364V396H135.302V344.364H146.043ZM168.917 396.63C165.976 396.63 163.311 395.874 160.925 394.361C158.555 392.832 156.672 390.588 155.277 387.629C153.899 384.654 153.209 381.007 153.209 376.687C153.209 372.249 153.924 368.56 155.353 365.618C156.781 362.66 158.681 360.45 161.051 358.987C163.438 357.508 166.051 356.768 168.892 356.768C171.06 356.768 172.867 357.138 174.313 357.878C175.775 358.601 176.952 359.508 177.843 360.601C178.75 361.677 179.439 362.736 179.91 363.778H180.238V344.364H190.953V396H180.364V389.798H179.91C179.406 390.873 178.691 391.941 177.767 393C176.859 394.042 175.674 394.907 174.212 395.597C172.766 396.286 171.001 396.63 168.917 396.63ZM172.321 388.083C174.052 388.083 175.515 387.612 176.708 386.671C177.918 385.713 178.843 384.377 179.481 382.662C180.137 380.948 180.465 378.939 180.465 376.636C180.465 374.334 180.145 372.333 179.507 370.636C178.868 368.938 177.943 367.627 176.733 366.702C175.523 365.778 174.052 365.316 172.321 365.316C170.556 365.316 169.068 365.795 167.858 366.753C166.648 367.711 165.732 369.039 165.11 370.737C164.488 372.434 164.177 374.401 164.177 376.636C164.177 378.889 164.488 380.881 165.11 382.612C165.749 384.326 166.665 385.671 167.858 386.646C169.068 387.604 170.556 388.083 172.321 388.083ZM206.062 396.656C204.398 396.656 202.97 396.067 201.776 394.891C200.599 393.697 200.011 392.268 200.011 390.604C200.011 388.957 200.599 387.545 201.776 386.369C202.97 385.192 204.398 384.604 206.062 384.604C207.676 384.604 209.088 385.192 210.298 386.369C211.508 387.545 212.113 388.957 212.113 390.604C212.113 391.714 211.828 392.731 211.256 393.655C210.702 394.563 209.97 395.294 209.063 395.849C208.155 396.387 207.155 396.656 206.062 396.656Z" fill="#F3F4F6"/>
</svg>
