<svg width="240" height="37" viewBox="0 0 240 37" fill="none" xmlns="http://www.w3.org/2000/svg">
<path d="M0.0340909 36V1.09091H14.0114C16.5795 1.09091 18.7216 1.47159 20.4375 2.23295C22.1534 2.99432 23.4432 4.05114 24.3068 5.40341C25.1705 6.74432 25.6023 8.28977 25.6023 10.0398C25.6023 11.4034 25.3295 12.6023 24.7841 13.6364C24.2386 14.6591 23.4886 15.5 22.5341 16.1591C21.5909 16.8068 20.5114 17.267 19.2955 17.5398V17.8807C20.625 17.9375 21.8693 18.3125 23.0284 19.0057C24.1989 19.6989 25.1477 20.6705 25.875 21.9205C26.6023 23.1591 26.9659 24.6364 26.9659 26.3523C26.9659 28.2045 26.5057 29.858 25.5852 31.3125C24.6761 32.7557 23.3295 33.8977 21.5455 34.7386C19.7614 35.5795 17.5625 36 14.9489 36H0.0340909ZM7.41477 29.9659H13.4318C15.4886 29.9659 16.9886 29.5739 17.9318 28.7898C18.875 27.9943 19.3466 26.9375 19.3466 25.6193C19.3466 24.6534 19.1136 23.8011 18.6477 23.0625C18.1818 22.3239 17.517 21.7443 16.6534 21.3239C15.8011 20.9034 14.7841 20.6932 13.6023 20.6932H7.41477V29.9659ZM7.41477 15.6989H12.8864C13.8977 15.6989 14.7955 15.5227 15.5795 15.1705C16.375 14.8068 17 14.2955 17.4545 13.6364C17.9205 12.9773 18.1534 12.1875 18.1534 11.267C18.1534 10.0057 17.7045 8.98864 16.8068 8.21591C15.9205 7.44318 14.6591 7.05682 13.0227 7.05682H7.41477V15.6989ZM43.5639 36.5114C40.8707 36.5114 38.5526 35.9659 36.6094 34.875C34.6776 33.7727 33.1889 32.2159 32.1435 30.2045C31.098 28.1818 30.5753 25.7898 30.5753 23.0284C30.5753 20.3352 31.098 17.9716 32.1435 15.9375C33.1889 13.9034 34.6605 12.3182 36.5582 11.1818C38.4673 10.0455 40.706 9.47727 43.2741 9.47727C45.0014 9.47727 46.6094 9.75568 48.098 10.3125C49.598 10.858 50.9048 11.6818 52.0185 12.7841C53.1435 13.8864 54.0185 15.2727 54.6435 16.9432C55.2685 18.6023 55.581 20.5455 55.581 22.7727V24.767H33.473V20.267H48.7457C48.7457 19.2216 48.5185 18.2955 48.0639 17.4886C47.6094 16.6818 46.9787 16.0511 46.1719 15.5966C45.3764 15.1307 44.4503 14.8977 43.3935 14.8977C42.2912 14.8977 41.3139 15.1534 40.4616 15.6648C39.6207 16.1648 38.9616 16.8409 38.4844 17.6932C38.0071 18.5341 37.7628 19.4716 37.7514 20.5057V24.7841C37.7514 26.0795 37.9901 27.1989 38.4673 28.142C38.956 29.0852 39.6435 29.8125 40.5298 30.3239C41.4162 30.8352 42.4673 31.0909 43.6832 31.0909C44.4901 31.0909 45.2287 30.9773 45.8991 30.75C46.5696 30.5227 47.1435 30.1818 47.6207 29.7273C48.098 29.2727 48.4616 28.7159 48.7116 28.0568L55.4276 28.5C55.0866 30.1136 54.3878 31.5227 53.331 32.7273C52.2855 33.9205 50.9332 34.8523 49.2741 35.5227C47.6264 36.1818 45.723 36.5114 43.5639 36.5114ZM56.6889 7.17614V1.09091H85.3594V7.17614H74.6719V36H67.3764V7.17614H56.6889ZM97.206 20.8636V36H89.9446V1.09091H97.0014V14.4375H97.3082C97.8991 12.892 98.8537 11.6818 100.172 10.8068C101.49 9.92045 103.143 9.47727 105.132 9.47727C106.95 9.47727 108.536 9.875 109.888 10.6705C111.251 11.4545 112.308 12.5852 113.058 14.0625C113.82 15.5284 114.195 17.2841 114.183 19.3295V36H106.922V20.625C106.933 19.0114 106.524 17.7557 105.695 16.858C104.876 15.9602 103.729 15.5114 102.251 15.5114C101.263 15.5114 100.388 15.7216 99.6264 16.142C98.8764 16.5625 98.2855 17.1761 97.8537 17.983C97.4332 18.7784 97.2173 19.7386 97.206 20.8636ZM131.83 36.5114C129.136 36.5114 126.818 35.9659 124.875 34.875C122.943 33.7727 121.455 32.2159 120.409 30.2045C119.364 28.1818 118.841 25.7898 118.841 23.0284C118.841 20.3352 119.364 17.9716 120.409 15.9375C121.455 13.9034 122.926 12.3182 124.824 11.1818C126.733 10.0455 128.972 9.47727 131.54 9.47727C133.267 9.47727 134.875 9.75568 136.364 10.3125C137.864 10.858 139.17 11.6818 140.284 12.7841C141.409 13.8864 142.284 15.2727 142.909 16.9432C143.534 18.6023 143.847 20.5455 143.847 22.7727V24.767H121.739V20.267H137.011C137.011 19.2216 136.784 18.2955 136.33 17.4886C135.875 16.6818 135.244 16.0511 134.438 15.5966C133.642 15.1307 132.716 14.8977 131.659 14.8977C130.557 14.8977 129.58 15.1534 128.727 15.6648C127.886 16.1648 127.227 16.8409 126.75 17.6932C126.273 18.5341 126.028 19.4716 126.017 20.5057V24.7841C126.017 26.0795 126.256 27.1989 126.733 28.142C127.222 29.0852 127.909 29.8125 128.795 30.3239C129.682 30.8352 130.733 31.0909 131.949 31.0909C132.756 31.0909 133.494 30.9773 134.165 30.75C134.835 30.5227 135.409 30.1818 135.886 29.7273C136.364 29.2727 136.727 28.7159 136.977 28.0568L143.693 28.5C143.352 30.1136 142.653 31.5227 141.597 32.7273C140.551 33.9205 139.199 34.8523 137.54 35.5227C135.892 36.1818 133.989 36.5114 131.83 36.5114ZM180.801 18.5455C180.801 22.3523 180.08 25.5909 178.636 28.2614C177.205 30.9318 175.25 32.9716 172.773 34.3807C170.307 35.7784 167.534 36.4773 164.455 36.4773C161.352 36.4773 158.568 35.7727 156.102 34.3636C153.636 32.9545 151.688 30.9148 150.256 28.2443C148.824 25.5739 148.108 22.3409 148.108 18.5455C148.108 14.7386 148.824 11.5 150.256 8.82955C151.688 6.15909 153.636 4.125 156.102 2.72727C158.568 1.31818 161.352 0.613635 164.455 0.613635C167.534 0.613635 170.307 1.31818 172.773 2.72727C175.25 4.125 177.205 6.15909 178.636 8.82955C180.08 11.5 180.801 14.7386 180.801 18.5455ZM173.318 18.5455C173.318 16.0795 172.949 14 172.21 12.3068C171.483 10.6136 170.455 9.32955 169.125 8.45455C167.795 7.57955 166.239 7.14205 164.455 7.14205C162.67 7.14205 161.114 7.57955 159.784 8.45455C158.455 9.32955 157.42 10.6136 156.682 12.3068C155.955 14 155.591 16.0795 155.591 18.5455C155.591 21.0114 155.955 23.0909 156.682 24.7841C157.42 26.4773 158.455 27.7614 159.784 28.6364C161.114 29.5114 162.67 29.9489 164.455 29.9489C166.239 29.9489 167.795 29.5114 169.125 28.6364C170.455 27.7614 171.483 26.4773 172.21 24.7841C172.949 23.0909 173.318 21.0114 173.318 18.5455ZM193.393 20.8636V36H186.132V9.81818H193.053V14.4375H193.359C193.939 12.9148 194.911 11.7102 196.274 10.8239C197.638 9.92614 199.291 9.47727 201.234 9.47727C203.053 9.47727 204.638 9.875 205.99 10.6705C207.342 11.4659 208.393 12.6023 209.143 14.0795C209.893 15.5455 210.268 17.2955 210.268 19.3295V36H203.007V20.625C203.018 19.0227 202.609 17.7727 201.78 16.875C200.95 15.9659 199.808 15.5114 198.354 15.5114C197.376 15.5114 196.513 15.7216 195.763 16.142C195.024 16.5625 194.445 17.1761 194.024 17.983C193.615 18.7784 193.405 19.7386 193.393 20.8636ZM227.923 36.5114C225.23 36.5114 222.912 35.9659 220.969 34.875C219.037 33.7727 217.548 32.2159 216.503 30.2045C215.457 28.1818 214.935 25.7898 214.935 23.0284C214.935 20.3352 215.457 17.9716 216.503 15.9375C217.548 13.9034 219.02 12.3182 220.918 11.1818C222.827 10.0455 225.065 9.47727 227.634 9.47727C229.361 9.47727 230.969 9.75568 232.457 10.3125C233.957 10.858 235.264 11.6818 236.378 12.7841C237.503 13.8864 238.378 15.2727 239.003 16.9432C239.628 18.6023 239.94 20.5455 239.94 22.7727V24.767H217.832V20.267H233.105C233.105 19.2216 232.878 18.2955 232.423 17.4886C231.969 16.6818 231.338 16.0511 230.531 15.5966C229.736 15.1307 228.81 14.8977 227.753 14.8977C226.651 14.8977 225.673 15.1534 224.821 15.6648C223.98 16.1648 223.321 16.8409 222.844 17.6932C222.366 18.5341 222.122 19.4716 222.111 20.5057V24.7841C222.111 26.0795 222.349 27.1989 222.827 28.142C223.315 29.0852 224.003 29.8125 224.889 30.3239C225.776 30.8352 226.827 31.0909 228.043 31.0909C228.849 31.0909 229.588 30.9773 230.259 30.75C230.929 30.5227 231.503 30.1818 231.98 29.7273C232.457 29.2727 232.821 28.7159 233.071 28.0568L239.787 28.5C239.446 30.1136 238.747 31.5227 237.69 32.7273C236.645 33.9205 235.293 34.8523 233.634 35.5227C231.986 36.1818 230.082 36.5114 227.923 36.5114Z" fill="#0369A1"/>
</svg>
